<svg xmlns="http://www.w3.org/2000/svg" viewBox="0 0 500 500" width="500px" height="500px"><title>Asset 27</title><g id="Layer_2" data-name="Layer 2"><g id="Layer_1-2" data-name="Layer 1"><rect width="500" height="500" fill="none"/><path d="M474.61,247.9c0,124-100.5,224.47-224.47,224.47h0c-124,0-224.47-100.49-224.47-224.47S126.17,23.43,250.14,23.43,474.61,123.93,474.61,247.9Z" fill="#BF7B74"/><path d="M321.24,123.14v27.41l-13-12.89S233,128,229.81,129.58,163.52,158.68,161.1,170s-17,34.76-20.22,54.16c-.08.5-.19,1-.28,1.51l-17.55-17.54H106.13l-8,21.47,34.15,34.15a77.4,77.4,0,0,0-.22,13.06l-12.27-12.27H106.13l-8,21.48L282,469.87A224.47,224.47,0,0,0,472.82,274.73L321.24,123.14Z" fill="#BF0423"/><path d="M321.24,372.1q-19.67,9.28-36.58,12.74-16.76,3.45-39.68,3.45-44.22,0-79-27.48Q131.42,333.35,122.51,286H98.12l8-21.48h13.65c-.24-2.54-.43-5.21-.55-8s-.18-5.71-.18-8.38q0-4.72.18-9.46c.12-3.15.31-6.19.55-9.1H98.12l8-21.47h16.92q10.56-46.77,44.41-73.71t78.07-26.93q25.66,0,43,3.82a121.49,121.49,0,0,1,32.76,11.83v38h-2.91a94.75,94.75,0,0,0-32.58-17.29q-18-5.64-40.58-5.64-28.57,0-51.87,18.92-23.3,18.75-32,51h86.45l-8,21.47H157.45c-.24,2.92-.49,6-.73,9.1s-.18,6.31-.18,9.47q0,4.19.18,8.37t.55,8h69.15l-8,21.48H160.91q8.91,33.12,32.94,52.23,24,18.93,51.32,18.92,28.58,0,44.77-5.64a85.82,85.82,0,0,0,28.57-16.92h2.73V372.1Z" fill="#FFFFFF"/></g></g></svg>